<svg class="svg-icon" style="width: 1em; height: 1em;vertical-align: middle;fill: currentColor;overflow: hidden;" viewBox="0 0 1024 1024" version="1.1" xmlns="http://www.w3.org/2000/svg"><path d="M0 0m204.8 0l614.4 0q204.8 0 204.8 204.8l0 614.4q0 204.8-204.8 204.8l-614.4 0q-204.8 0-204.8-204.8l0-614.4q0-204.8 204.8-204.8Z" fill="#95EFC2" /><path d="M819.2 0H534.272A756.48 756.48 0 0 0 0 483.584V819.2a204.8 204.8 0 0 0 204.8 204.8h614.4a204.8 204.8 0 0 0 204.8-204.8V204.8a204.8 204.8 0 0 0-204.8-204.8z" fill="#88EDBF" /><path d="M819.2 0h-3.84a755.2 755.2 0 0 0-539.392 1024H819.2a204.8 204.8 0 0 0 204.8-204.8V204.8a204.8 204.8 0 0 0-204.8-204.8z" fill="#79E8B8" /><path d="M497.152 721.152A752.384 752.384 0 0 0 560.384 1024H819.2a204.8 204.8 0 0 0 204.8-204.8V204.8a204.8 204.8 0 0 0-89.088-168.96 755.2 755.2 0 0 0-437.76 685.312z" fill="#69E2B3" /><path d="M512 204.8a307.2 307.2 0 0 0-204.8 535.808V793.6a25.6 25.6 0 0 0 25.6 25.6h179.2a307.2 307.2 0 0 0 0-614.4z" fill="#D7FFE9" /><path d="M742.4 512A307.2 307.2 0 0 0 473.6 207.36 307.2 307.2 0 0 0 307.2 740.608V793.6a25.6 25.6 0 0 0 25.6 25.6h102.4a307.2 307.2 0 0 0 307.2-307.2z" fill="#FFFFFF" /><path d="M486.4 473.6m25.6 0l0 0q25.6 0 25.6 25.6l0 25.6q0 25.6-25.6 25.6l0 0q-25.6 0-25.6-25.6l0-25.6q0-25.6 25.6-25.6Z" fill="#79E8B8" /><path d="M384 473.6m25.6 0l0 0q25.6 0 25.6 25.6l0 25.6q0 25.6-25.6 25.6l0 0q-25.6 0-25.6-25.6l0-25.6q0-25.6 25.6-25.6Z" fill="#79E8B8" /><path d="M588.8 473.6m25.6 0l0 0q25.6 0 25.6 25.6l0 25.6q0 25.6-25.6 25.6l0 0q-25.6 0-25.6-25.6l0-25.6q0-25.6 25.6-25.6Z" fill="#79E8B8" /></svg>